#!OML:ASF E:\emotionWalksFemale\Project 1\Capture day 1\Session 1\Female1.ASF
:FULLY-SPECIFIED
:DEGREES
1050
root 9.25684 15.3448 -0.953006 185.575 7.57349 -176.87
lowerback 6.6324 3.40422 7.63229
upperback -3.36788 5.67279 2.45305
thorax -6.80964 2.58794 -2.36916
lowerneck -5.57678 7.76293 2.84324
upperneck -0.365767 10.1403 -2.79986
head 1.11666 4.98933 -1.05179
rclavicle -2.64756e-014 -3.57812e-014
rhumerus -17.2109 6.10016 -80.1555
rradius 41.4903
rwrist 24.3627
rhand -18.2956 -64.7253
rfingers 7.12502
rthumb 7.98504 814.554
lclavicle -2.64756e-014 -3.57812e-014
lhumerus -51.7995 2.81615 72.7633
lradius 57.6938
lwrist -1.53801
lhand -5.32558 -33.6008
lfingers 7.12502
lthumb 20.4806 -4.66102
rfemur 20.1034 9.55222 32.7454
rtibia 2.54444e-014
rfoot -9.83672 -7.42146
rtoes 1.60465
lfemur -33.3444 -14.7295 -17.8187
ltibia 27.1833
lfoot -23.1362 27.1461
ltoes -14.5652
1051
root 9.2524 15.3389 -1.06604 185.655 7.84041 -176.866
lowerback 6.43054 3.46089 7.43931
upperback -3.4311 5.70646 2.3941
thorax -6.76782 2.61147 -2.31547
lowerneck -5.42943 7.87096 2.65611
upperneck -0.477274 10.2906 -2.39218
head 1.02382 5.07229 -0.90034
rclavicle 1.40081e-014 3.49861e-014
rhumerus -17.4037 6.51689 -80.4213
rradius 41.9799
rwrist 24.2821
rhand -17.7649 -65.2686
rfingers 7.12502
rthumb 8.49725 815.078
lclavicle 1.40081e-014 3.49861e-014
lhumerus -52.21 2.75704 72.8158
lradius 57.0234
lwrist -1.6744
lhand -4.59403 -33.5438
lfingers 7.12502
lthumb 21.1834 -4.6812
rfemur 20.4458 9.57691 32.5907
rtibia -6.36111e-015
rfoot -9.33122 -6.76906
rtoes 2.4281
lfemur -33.0385 -14.0977 -18.204
ltibia 27.5078
lfoot -22.7976 27.2311
ltoes -14.9804
1052
root 9.24984 15.334 -1.18117 185.65 8.02585 -176.705
lowerback 6.40064 3.48938 7.434
upperback -3.49105 5.74025 2.34287
thorax -6.8069 2.62361 -2.3694
lowerneck -5.61969 7.93863 2.52555
upperneck -0.262811 10.3834 -2.0257
head 1.0961 5.12444 -0.752333
rclavicle -1.58639e-015 -5.725e-014
rhumerus -17.6333 6.86736 -80.7047
rradius 42.3027
rwrist 24.0522
rhand -18.2647 -64.9281
rfingers 7.12502
rthumb 8.01491 814.756
lclavicle -1.58639e-015 -5.725e-014
lhumerus -52.5308 2.74348 72.7998
lradius 55.948
lwrist -2.32347
lhand -4.72756 -33.8679
lfingers 7.12502
lthumb 21.0552 -4.99099
rfemur 20.8685 9.51587 32.6065
rtibia -6.36111e-015
rfoot -8.94806 -6.09054
rtoes 1.64882
lfemur -32.7046 -13.6483 -18.3664
ltibia 27.8571
lfoot -22.8784 27.37
ltoes -13.7514
1053
root 9.24674 15.3359 -1.30247 185.614 8.13746 -176.634
lowerback 6.39596 3.50903 7.40095
upperback -3.55755 5.75613 2.24825
thorax -6.86665 2.6246 -2.45373
lowerneck -5.93578 7.92676 2.43681
upperneck 0.116795 10.3675 -1.67372
head 1.24408 5.12305 -0.60995
rclavicle -4.90408e-014 -6.67916e-014
rhumerus -17.8207 7.13955 -80.9551
rradius 42.6359
rwrist 23.7739
rhand -19.2418 -63.836
rfingers 7.12502
rthumb 7.07174 813.698
lclavicle -4.90408e-014 -6.67916e-014
lhumerus -52.8209 2.59311 72.8274
lradius 55.1897
lwrist -2.11111
lhand -3.8176 -33.7196
lfingers 7.12502
lthumb 21.9291 -4.94241
rfemur 21.3148 9.37688 32.5204
rtibia 3.49861e-014
rfoot -8.53209 -5.49526
rtoes -0.0586641
lfemur -32.3891 -13.4184 -18.5733
ltibia 28.2264
lfoot -22.7001 28.006
ltoes -13.0356
1054
root 9.24127 15.3463 -1.42857 185.645 8.25717 -176.689
lowerback 6.25373 3.58537 7.30441
upperback -3.61439 5.81811 2.08502
thorax -6.83003 2.65222 -2.56786
lowerneck -6.04541 7.91405 2.30338
upperneck 0.208573 10.3477 -1.2417
head 1.25769 5.12077 -0.452127
rclavicle -4.33661e-014 -5.1684e-014
rhumerus -18.0107 7.17318 -81.1419
rradius 43.0452
rwrist 23.7891
rhand -19.4808 -63.1515
rfingers 7.12502
rthumb 6.84105 813.021
lclavicle -4.33661e-014 -5.1684e-014
lhumerus -52.8547 2.37848 72.891
lradius 54.0372
lwrist -2.32803
lhand -3.38848 -33.8913
lfingers 7.12502
lthumb 22.3411 -5.16303
rfemur 21.6775 9.25951 32.2661
rtibia 1.08139e-013
rfoot -7.97943 -4.93192
rtoes -0.818972
lfemur -32.194 -13.1934 -18.8953
ltibia 28.585
lfoot -21.8421 28.9904
ltoes -14.3219
1055
root 9.23399 15.357 -1.55334 185.723 8.34221 -176.879
lowerback 5.90182 3.67754 7.12716
upperback -3.60044 5.86496 1.90239
thorax -6.60238 2.68439 -2.63566
lowerneck -5.98219 7.93327 2.229
upperneck -0.000695019 10.3706 -1.10243
head 1.16745 5.13256 -0.405692
rclavicle 1.7639e-014 -3.18055e-015
rhumerus -18.0504 7.18485 -81.2052
rradius 43.328
rwrist 24.0596
rhand -19.1 -63.0786
rfingers 7.12502
rthumb 7.20867 812.936
lclavicle 1.7639e-014 -3.18055e-015
lhumerus -52.6575 2.63224 72.8146
lradius 52.6422
lwrist -3.05897
lhand -2.30251 -33.6305
lfingers 7.12502
lthumb 23.3832 -5.03097
rfemur 21.9737 9.11594 31.8496
rtibia 0
rfoot -7.42955 -4.37835
rtoes -1.58787
lfemur -32.0682 -12.764 -19.4085
ltibia 28.887
lfoot -20.7423 29.621
ltoes -15.7824
1056
root 9.22728 15.3621 -1.67865 185.751 8.42689 -177.153
lowerback 6.07226 3.72912 6.72233
upperback -3.86768 5.91881 1.7547
thorax -7.00275 2.70328 -2.59996
lowerneck -6.01985 7.95468 2.2582
upperneck 0.238045 10.4023 -1.02829
head 1.24794 5.153 -0.379157
rclavicle -2.8948e-014 3.97569e-015
rhumerus -18.6212 7.36664 -81.2882
rradius 43.6251
rwrist 24.3032
rhand -18.6126 -63.215
rfingers 7.12502
rthumb 7.67912 813.056
lclavicle -2.8948e-014 3.97569e-015
lhumerus -53.0164 2.84932 72.7074
lradius 51.4495
lwrist -3.97207
lhand -1.2666 -33.0912
lfingers 7.12502
lthumb 24.3766 -4.62166
rfemur 22.3404 8.95978 31.3452
rtibia -3.18055e-015
rfoot -6.91011 -3.82824
rtoes -2.29062
lfemur -31.7832 -12.0025 -20.1494
ltibia 29.1211
lfoot -19.9543 29.4618
ltoes -15.9899
1057
root 9.22097 15.3677 -1.80484 185.758 8.44213 -177.359
lowerback 5.62052 3.77653 6.4824
upperback -3.70314 5.8803 1.5821
thorax -6.56988 2.70521 -2.59833
lowerneck -6.50988 7.99201 2.11967
upperneck 0.390421 10.4375 -0.728882
head 1.35574 5.17208 -0.240941
rclavicle -4.8168e-014 1.19271e-014
rhumerus -18.6297 7.37123 -81.3577
rradius 43.9611
rwrist 24.5646
rhand -18.0192 -63.6308
rfingers 7.12502
rthumb 8.25176 813.45
lclavicle -4.8168e-014 1.19271e-014
lhumerus -52.5345 3.10241 72.6591
lradius 49.9167
lwrist -4.82813
lhand -0.947495 -32.8281
lfingers 7.12502
lthumb 24.6825 -4.40011
rfemur 22.6899 8.73842 30.9102
rtibia 5.725e-014
rfoot -5.99955 -3.33577
rtoes -2.27005
lfemur -31.3896 -11.2763 -20.8156
ltibia 29.3096
lfoot -19.6879 28.7949
ltoes -14.4176
1058
root 9.21468 15.3752 -1.93094 185.732 8.35436 -177.548
lowerback 5.52922 3.80212 6.26306
upperback -3.77247 5.87298 1.40917
thorax -6.59248 2.70227 -2.65264
lowerneck -6.5704 7.92546 2.03613
upperneck 0.447791 10.3477 -0.494677
head 1.36484 5.13208 -0.15638
rclavicle 6.08592e-014 1.82882e-014
rhumerus -19.1678 7.33492 -81.4302
rradius 44.4482
rwrist 24.6131
rhand -17.9242 -63.6375
rfingers 7.12502
rthumb 8.34348 813.453
lclavicle 6.08592e-014 1.82882e-014
lhumerus -52.2341 3.43742 72.5036
lradius 48.0074
lwrist -5.74889
lhand -0.96344 -33.226
lfingers 7.12502
lthumb 24.6673 -4.79591
rfemur 23.0116 8.41297 30.4987
rtibia -8.90555e-014
rfoot -4.61401 -2.94194
rtoes -0.715118
lfemur -30.9397 -10.6188 -21.4458
ltibia 29.4878
lfoot -19.4112 27.8172
ltoes -12.7983
1059
root 9.2075 15.3801 -2.056 185.636 8.23994 -177.73
lowerback 5.64144 3.80996 6.09583
upperback -3.93685 5.87083 1.21767
thorax -6.82763 2.69016 -2.77719
lowerneck -6.21833 7.85871 2.18402
upperneck 0.28723 10.2579 -0.478974
head 1.25877 5.08943 -0.197348
rclavicle 1.72818e-014 -1.03368e-014
rhumerus -20.0516 7.3831 -81.5514
rradius 44.966
rwrist 24.3725
rhand -18.7486 -63.1391
rfingers 7.12502
rthumb 7.54785 812.984
lclavicle 1.72818e-014 -1.03368e-014
lhumerus -52.3061 3.73814 72.2867
lradius 46.3714
lwrist -6.7066
lhand -1.20399 -33.7773
lfingers 7.12502
lthumb 24.4367 -5.31592
rfemur 23.4022 8.05221 30.0999
rtibia -2.22639e-014
rfoot -3.24266 -2.52224
rtoes 0.621778
lfemur -30.4632 -9.87856 -22.0878
ltibia 29.6668
lfoot -18.6142 26.664
ltoes -13.0979
1060
root 9.2001 15.383 -2.18265 185.511 8.07536 -177.861
lowerback 5.61161 3.81112 5.97079
upperback -3.96016 5.84298 1.06774
thorax -6.83241 2.67501 -2.86028
lowerneck -6.3644 7.82809 2.23098
upperneck 0.441875 10.2071 -0.336452
head 1.32734 5.06776 -0.153091
rclavicle -7.12395e-014 -1.82882e-014
rhumerus -20.691 7.55222 -81.5769
rradius 45.4069
rwrist 23.985
rhand -19.797 -62.9334
rfingers 7.12502
rthumb 6.53582 812.813
lclavicle -7.12395e-014 -1.82882e-014
lhumerus -52.1862 3.86151 72.2623
lradius 44.9669
lwrist -7.46558
lhand -1.49051 -33.6234
lfingers 7.12502
lthumb 24.162 -5.12514
rfemur 23.8312 7.64442 29.7562
rtibia 7.31528e-014
rfoot -2.0213 -2.03216
rtoes 0.270787
lfemur -29.9835 -9.20613 -22.6443
ltibia 29.8388
lfoot -17.8192 25.4639
ltoes -13.5379
1061
root 9.19444 15.3856 -2.31447 185.368 7.83466 -178.009
lowerback 5.56272 3.80561 5.74239
upperback -3.98327 5.80081 0.961433
thorax -6.84122 2.6597 -2.83852
lowerneck -6.61602 7.75912 2.14735
upperneck 0.723495 10.1098 -0.0813072
head 1.4414 5.02607 -0.0480564
rclavicle 3.05631e-015 -2.78299e-015
rhumerus -21.3299 7.72284 -81.5177
rradius 45.847
rwrist 23.6281
rhand -20.5921 -62.8814
rfingers 7.12502
rthumb 5.7682 812.783
lclavicle 3.05631e-015 -2.78299e-015
lhumerus -51.9775 4.12747 72.1544
lradius 43.3607
lwrist -8.37841
lhand -1.69229 -33.544
lfingers 7.12502
lthumb 23.9685 -5.02022
rfemur 24.2924 7.15917 29.4102
rtibia -1.59028e-014
rfoot -0.738939 -1.60198
rtoes -0.289487
lfemur -29.449 -8.59807 -23.2114
ltibia 30.0175
lfoot -17.2941 24.4171
ltoes -13.8244
